
<svg width="64" height="70" viewBox="0 0 64 70" fill="none" xmlns="http://www.w3.org/2000/svg">
<path d="M5.17706 42.1732V69.0055C5.17694 69.1781 5.22141 69.3478 5.30609 69.4978C5.39078 69.6477 5.51277 69.7729 5.66004 69.861C5.80732 69.949 5.97481 69.9969 6.14603 69.9999C6.31724 70.0029 6.48628 69.9609 6.63651 69.8781L17.0104 64.1737L27.3843 69.8781C27.5345 69.9609 27.7036 70.0029 27.8748 69.9999C28.046 69.9969 28.2135 69.949 28.3608 69.861C28.508 69.7729 28.63 69.6477 28.7147 69.4978C28.7994 69.3478 28.8439 69.1781 28.8437 69.0055V42.1732C28.8437 41.1189 28.4282 40.1078 27.6884 39.3623C26.9487 38.6168 25.9454 38.198 24.8993 38.198H9.12151C8.07538 38.198 7.07209 38.6168 6.33236 39.3623C5.59264 40.1078 5.17706 41.1189 5.17706 42.1732Z" fill="#66150C"/>
<rect y="0.479233" width="59.1667" height="59.1667" rx="8" fill="#9B1A0F"/>
<path d="M27.4535 33.5623L29.3107 38.6649C28.0007 40.5038 26.0489 41.8953 23.4553 42.8393C20.8617 43.7833 18.5379 43.7139 16.4837 42.6312C14.4414 41.5228 12.8389 39.3712 11.676 36.1762C11.163 34.7667 10.8798 33.4331 10.8265 32.1755C10.7919 30.9111 10.9326 29.8063 11.2484 28.8613C11.583 27.9095 12.0561 27.0456 12.6676 26.2696C13.8496 24.8391 15.3897 23.7784 17.2878 23.0875C19.2048 22.3898 21.1305 22.1252 23.0648 22.2938L24.8091 27.0862L22.0055 28.3302L21.2051 26.1313C21.1025 25.8494 20.9897 25.6563 20.8666 25.5521C20.5299 25.2703 19.6098 25.403 18.1063 25.9502C14.4791 27.2704 13.4829 30.1764 15.1178 34.6681C16.8416 39.4042 19.3385 41.1771 22.6086 39.9868C23.9054 39.5148 24.8194 38.9268 25.3506 38.2226L23.8218 34.0222L23.7936 34.0325L21.5921 34.738L20.72 32.3417L27.7395 29.7868L28.5603 32.0421L27.9325 32.3345C27.6454 32.4815 27.4601 32.6448 27.3764 32.8242C27.3047 32.978 27.3304 33.2241 27.4535 33.5623ZM26.2805 20.1975L34.2303 17.3041C38.2898 15.8265 40.8907 16.657 42.033 19.7956C42.6623 21.5247 42.2767 23.1549 40.876 24.6863C42.0874 24.5646 43.14 24.7668 44.0338 25.2928C44.9465 25.812 45.6217 26.673 46.0594 27.8758C46.723 29.6988 46.6089 31.3153 45.7174 32.7252C44.8447 34.1284 43.2337 35.2574 40.8845 36.1125L32.9628 38.9957L32.1317 36.7123L33.0313 36.2891C33.5558 36.0343 33.7325 35.672 33.5615 35.2022L28.7903 22.0935L27.1527 22.5938L26.2805 20.1975ZM35.041 28.566L37.1855 34.4578L39.8354 33.4933C42.2786 32.6041 43.1376 31.1634 42.4126 29.1712C42.0705 28.2315 41.5005 27.6302 40.7025 27.3673C39.9164 27.0788 38.9595 27.1397 37.8319 27.5502L35.041 28.566ZM32.2706 20.9544L34.1278 26.057L36.2139 25.2977C37.3791 24.8736 38.1487 24.3274 38.5228 23.6592C38.9087 22.9654 38.9444 22.1862 38.6297 21.3217C38.3151 20.4571 37.8108 19.9489 37.1171 19.7971C36.4421 19.6384 35.5877 19.7471 34.5541 20.1233L32.2706 20.9544Z" fill="#F9F8F5"/>
</svg>